<svg width="632" height="260" viewBox="0 0 632 260" fill="none" xmlns="http://www.w3.org/2000/svg">
<g opacity="0.08">
<path d="M1015.58 -188.305C826.418 -159.691 529.852 -101.783 680.727 81.0171C872.725 313.643 1341.91 252.701 1133.53 432.249" stroke="#B1D3E1" stroke-width="3"/>
<path d="M954.587 -159.126C765.429 -130.512 468.863 -72.6041 619.737 110.196C811.735 342.822 1280.92 281.88 1072.54 461.428" stroke="#B1D3E1" stroke-width="3"/>
<path d="M890.879 -136.491C701.72 -107.877 405.154 -49.969 556.029 132.831C748.027 365.457 1217.21 304.515 1008.83 484.063" stroke="#B1D3E1" stroke-width="3"/>
<path d="M825.021 -121.198C635.863 -92.5835 339.297 -34.6758 490.171 148.124C682.169 380.75 1151.35 319.808 942.972 499.356" stroke="#B1D3E1" stroke-width="3"/>
<path d="M757.871 -113.319C568.713 -84.7048 272.147 -26.7971 423.021 156.003C615.019 388.629 1084.2 327.687 875.823 507.235" stroke="#B1D3E1" stroke-width="3"/>
<path d="M690.273 -112.071C501.115 -83.4573 204.549 -25.5496 355.423 157.25C547.421 389.876 1016.6 328.935 808.224 508.482" stroke="#B1D3E1" stroke-width="3"/>
<path d="M622.782 -116.077C433.624 -87.4633 137.058 -29.5556 287.932 153.244C479.93 385.87 949.114 324.929 740.733 504.476" stroke="#B1D3E1" stroke-width="3"/>
<path d="M555.613 -123.785C366.454 -95.1713 69.8885 -37.2636 220.763 145.536C412.761 378.162 881.944 317.221 673.564 496.768" stroke="#B1D3E1" stroke-width="3"/>
<path d="M488.744 -133.769C299.586 -105.155 3.01981 -47.2473 153.894 135.553C345.892 368.178 815.076 307.237 606.695 486.785" stroke="#B1D3E1" stroke-width="3"/>
<path d="M422.05 -144.855C232.891 -116.241 -63.6745 -58.3334 87.1998 124.467C279.198 357.092 748.381 296.151 540.001 475.699" stroke="#B1D3E1" stroke-width="3"/>
<path d="M355.386 -156.127C166.227 -127.513 -130.339 -69.6054 20.5356 113.195C212.534 345.82 681.717 284.879 473.337 464.427" stroke="#B1D3E1" stroke-width="3"/>
<path d="M288.639 -166.895C99.4804 -138.281 -197.085 -80.3733 -46.2111 102.427C145.787 335.052 614.97 274.111 406.59 453.659" stroke="#B1D3E1" stroke-width="3"/>
<path d="M221.8 -176.64C32.6414 -148.026 -263.924 -90.1183 -113.05 92.6816C78.948 325.307 548.131 264.366 339.751 443.914" stroke="#B1D3E1" stroke-width="3"/>
<path d="M154.713 -185.029C-34.4459 -156.415 -331.012 -98.507 -180.137 84.2929C11.8607 316.919 481.044 255.977 272.664 435.525" stroke="#B1D3E1" stroke-width="3"/>
<path d="M87.443 -191.805C-101.716 -163.191 -398.281 -105.283 -247.407 77.5167C-55.409 310.142 413.774 249.201 205.394 428.749" stroke="#B1D3E1" stroke-width="3"/>
<path d="M19.6026 -196.876C-169.556 -168.262 -466.122 -110.355 -315.247 72.4454C-123.249 305.071 345.934 244.13 137.554 423.678" stroke="#B1D3E1" stroke-width="3"/>
<path d="M-47.8949 -200.78C-237.054 -172.166 -533.619 -114.258 -382.745 68.5416C-190.747 301.167 278.436 240.226 70.0562 419.774" stroke="#B1D3E1" stroke-width="3"/>
<path d="M-115.441 -203.708C-304.599 -175.094 -601.165 -117.186 -450.291 65.6137C-258.293 298.239 210.89 237.298 2.51021 416.846" stroke="#B1D3E1" stroke-width="3"/>
</g>
</svg>
