<svg width="393" height="377" viewBox="0 0 393 377" fill="none" xmlns="http://www.w3.org/2000/svg">
<g opacity="0.05">
<path d="M862.45 -205.356C616.328 -168.125 230.454 -92.779 426.763 145.069C676.58 447.748 1287.05 368.455 1015.92 602.072" stroke="#62B2A3" stroke-width="3"/>
<path d="M774.923 -214.173C528.801 -176.942 142.927 -101.596 339.236 136.253C589.052 438.932 1199.53 359.638 928.394 593.255" stroke="#62B2A3" stroke-width="3"/>
<path d="M686.653 -220.771C440.531 -183.54 54.6569 -108.194 250.966 129.654C500.782 432.333 1111.26 353.04 840.124 586.657" stroke="#62B2A3" stroke-width="3"/>
<path d="M598.829 -225.851C352.707 -188.62 -33.1669 -113.274 163.142 124.575C412.959 427.254 1023.43 347.96 752.3 581.577" stroke="#62B2A3" stroke-width="3"/>
<path d="M510.942 -229.66C264.82 -192.429 -121.054 -117.083 75.2549 120.765C325.072 423.444 935.545 344.151 664.413 577.768" stroke="#62B2A3" stroke-width="3"/>
<path d="M423.003 -232.027C176.881 -194.796 -208.993 -119.45 -12.684 118.398C237.133 421.077 847.606 341.784 576.474 575.401" stroke="#62B2A3" stroke-width="3"/>
<path d="M335.036 -232.733C88.9143 -195.502 -296.96 -120.156 -100.651 117.693C149.166 420.372 759.639 341.078 488.507 574.695" stroke="#62B2A3" stroke-width="3"/>
<path d="M246.993 -231.518C0.87063 -194.287 -385.003 -118.941 -188.695 118.908C61.1221 421.587 671.596 342.294 400.464 575.911" stroke="#62B2A3" stroke-width="3"/>
<path d="M159.094 -227.977C-87.0284 -190.746 -472.902 -115.4 -276.594 122.449C-26.7769 425.128 583.697 345.834 312.565 579.451" stroke="#62B2A3" stroke-width="3"/>
<path d="M71.352 -221.634C-174.77 -184.403 -560.644 -109.057 -364.335 128.791C-114.518 431.47 495.955 352.177 224.823 585.794" stroke="#62B2A3" stroke-width="3"/>
<path d="M-16.067 -211.794C-262.189 -174.563 -648.063 -99.2173 -451.754 138.631C-201.938 441.31 408.536 362.017 137.404 595.634" stroke="#62B2A3" stroke-width="3"/>
<path d="M-102.866 -197.452C-348.988 -160.222 -734.862 -84.8754 -538.553 152.973C-288.736 455.652 321.737 376.359 50.6053 609.976" stroke="#62B2A3" stroke-width="3"/>
<path d="M-188.443 -177.175C-434.565 -139.944 -820.439 -64.5981 -624.13 173.25C-374.314 475.929 236.16 396.636 -34.972 630.253" stroke="#62B2A3" stroke-width="3"/>
</g>
</svg>
